<?xml version="1.0" encoding="iso-8859-1"?>
<!-- Generator: Adobe Illustrator 17.1.0, SVG Export Plug-In . SVG Version: 6.00 Build 0)  -->
<!DOCTYPE svg PUBLIC "-//W3C//DTD SVG 1.1//EN" "http://www.w3.org/Graphics/SVG/1.1/DTD/svg11.dtd">
<svg version="1.1" id="Capa_1" xmlns="http://www.w3.org/2000/svg" xmlns:xlink="http://www.w3.org/1999/xlink" x="0px" y="0px"
	 viewBox="0 0 254.436 254.436" style="enable-background:new 0 0 254.436 254.436;" xml:space="preserve">
<path d="M242.76,112.005h-70.362c4.26-2.499,7.501-6.556,8.912-11.396h20.089c3.85,0,6.981-3.132,6.981-6.981v-32.57
	c0-3.845-3.128-6.995-6.973-7.023l-3.002-0.022c-2.731-0.02-6.178-2.043-7.526-4.418l-14.541-25.603
	c-1.791-3.153-6.034-5.623-9.66-5.623h-64.162c-3.601,0-7.951,2.369-9.903,5.395L75.536,50.227
	c-1.543,2.391-5.189,4.954-7.963,5.598L52.61,59.293c-3.614,0.839-6.555,4.539-6.555,8.249v26.087c0,3.85,3.132,6.981,6.981,6.981
	h11.16c1.41,4.84,4.651,8.896,8.912,11.396H11.674C5.236,112.005,0,117.243,0,123.681v100.71c0,6.438,5.236,11.675,11.674,11.675
	h21.939c3.896,0,5.935-1.872,6.057-5.566l0.007-0.187c2.021-46.987,40.473-83.795,87.54-83.795c46.643,0,85.077,36.453,87.5,82.989
	l0.012,0.265c0.066,1.557,0.262,6.294,6.396,6.294h21.635c6.439,0,11.676-5.237,11.676-11.675v-100.71
	C254.436,117.243,249.198,112.005,242.76,112.005z M152.879,95.158c0-5.355,4.342-9.698,9.697-9.698s9.697,4.343,9.697,9.698
	c0,5.356-4.342,9.698-9.697,9.698S152.879,100.514,152.879,95.158z M141.128,27.651h20.404c2.551,0,5.628,1.838,6.838,4.083
	l10.785,20.016c1.21,2.245,0.113,4.083-2.438,4.083h-35.59V27.651z M87.122,51.874L99.495,31.61
	c1.329-2.178,4.504-3.959,7.055-3.959h23.416v28.182H89.343C86.792,55.833,85.793,54.051,87.122,51.874z M82.932,85.459
	c5.355,0,9.699,4.343,9.699,9.698c0,5.356-4.344,9.698-9.699,9.698c-5.355,0-9.697-4.342-9.697-9.698
	C73.234,89.802,77.576,85.459,82.932,85.459z M92.754,112.005c4.261-2.499,7.502-6.556,8.912-11.396h42.176
	c1.41,4.84,4.651,8.896,8.912,11.396H92.754z"/>
<g>
</g>
<g>
</g>
<g>
</g>
<g>
</g>
<g>
</g>
<g>
</g>
<g>
</g>
<g>
</g>
<g>
</g>
<g>
</g>
<g>
</g>
<g>
</g>
<g>
</g>
<g>
</g>
<g>
</g>
</svg>
